Patient4_TMGait_0pt2_01_right_05_GRF.mot
version=1
nRows=45
nColumns=19
inDegrees=no
endheader
time	F1x	F1y	F1z	M1x	M1y	M1z	F2x	F2y	F2z	M2x	M2y	M2z	EC1x	EC1y	EC1z	EC2x	EC2y	EC2z
9.33	3.6977	661.0698	36.0814	-234.1261	-32.3656	667.7766	4.7087	137.8516	-14.3555	49.1341	12.1357	132.3169	-0.0592	0.0182	-0.0073	-0.0462	0.0165	0.9585
9.3518	2.2069	676.7061	38.6858	-239.0818	-35.2975	683.2651	2.875	122.7994	-12.7352	43.7761	11.3366	117.4181	-0.0592	0.0182	-0.0073	-0.0462	0.0165	0.9585
9.3736	1.0673	696.236	41.8417	-245.3063	-38.618	702.465	0.89897	105.3104	-10.9223	37.5306	10.3659	100.3429	-0.0592	0.0182	-0.0073	-0.0462	0.0165	0.9585
9.3954	0.39869	718.9537	45.4118	-252.5977	-42.1484	724.563	-1.0485	86.473	-8.984	30.7952	9.2287	82.1588	-0.0592	0.0182	-0.0073	-0.0462	0.0165	0.9585
9.4171	0.23321	743.5392	49.1781	-260.5495	-45.6592	748.1302	-2.729	67.5752	-7.008	24.0394	7.9322	64.0781	-0.0592	0.0182	-0.0073	-0.0462	0.0165	0.9585
9.4389	0.54857	767.9823	52.8964	-268.5108	-48.9099	771.0764	-3.8883	49.8708	-5.1119	17.716	6.5086	47.2571	-0.0592	0.0182	-0.0073	-0.0462	0.0165	0.9585
9.4607	1.3067	789.7937	56.3354	-275.6485	-51.6738	790.8775	-4.3352	34.3771	-3.4222	12.1883	5.0217	32.6128	-0.0592	0.0182	-0.0073	-0.0462	0.0165	0.9585
9.4825	2.4976	806.4302	59.2885	-281.0929	-53.7399	805.0042	-4.0533	21.755	-2.0388	7.6905	3.5694	20.7188	-0.0592	0.0182	-0.0073	-0.0462	0.0165	0.9585
9.5043	4.1461	815.8488	61.5964	-284.1341	-54.9388	811.4832	-3.3148	12.247	-1.0023	4.3072	2.2895	11.7637	-0.0592	0.0182	-0.0073	-0.0462	0.0165	0.9585
9.5261	6.2696	817.0924	63.1726	-284.4281	-55.1838	809.4804	-2.4179	5.5728	-0.28747	1.9394	1.2632	5.4609	-0.0592	0.0182	-0.0073	-0.0462	0.0165	0.9585
9.5479	8.8318	810.7295	64.0021	-282.1532	-54.4859	799.7141	-1.5449	1.1074	0.17131	0.3659	0.48956	1.1963	-0.0592	0.0182	-0.0073	-0.0462	0.0165	0.9585
9.5696	11.7367	798.9138	64.1293	-278.0381	-52.9443	784.4738	-0.78795	-1.8758	0.45233	-0.67018	-0.07717	-1.7396	-0.0592	0.0182	-0.0073	-0.0462	0.0165	0.9585
9.5914	14.8449	784.9005	63.6561	-273.2004	-50.7364	767.1144	-0.1773	-4.0327	0.62943	-1.4025	-0.50023	-3.9728	-0.0592	0.0182	-0.0073	-0.0462	0.0165	0.9585
9.6132	18	772.0944	62.7401	-268.8152	-48.0991	751.0934	0.2947	-5.8368	0.76092	-2.0027	-0.83917	-5.9416	-0.0592	0.0182	-0.0073	-0.0462	0.0165	0.9585
9.635	21.067	763.0103	61.5799	-265.7523	-45.2961	738.9364	0.64639	-7.4965	0.8784	-2.5506	-1.1277	-7.814	-0.0592	0.0182	-0.0073	-0.0462	0.0165	0.9585
9.6568	23.9684	758.5687	60.3842	-264.3305	-42.577	731.5509	0.88848	-8.8859	0.98113	-3.0105	-1.3607	-9.4118	-0.0592	0.0182	-0.0073	-0.0462	0.0165	0.9585
9.6786	26.6866	757.9909	59.3236	-264.2759	-40.1297	728.1573	1.0148	-9.4852	1.0294	-3.211	-1.4847	-10.1425	-0.0592	0.0182	-0.0073	-0.0462	0.0165	0.9585
9.7004	29.2055	759.2156	58.5024	-264.8613	-38.0733	726.733	0.99394	-8.3351	0.94248	-2.829	-1.394	-8.948	-0.0592	0.0182	-0.0073	-0.0462	0.0165	0.9585
9.7221	31.4666	759.5717	57.9496	-265.1395	-36.4666	724.6971	0.76081	-4.0237	0.59895	-1.3857	-0.92601	-4.2827	-0.0592	0.0182	-0.0073	-0.0462	0.0165	0.9585
9.7439	33.3725	756.3656	57.6084	-264.1501	-35.2959	719.4871	0.21457	5.2648	-0.15897	1.7374	0.13383	5.8413	-0.0592	0.0182	-0.0073	-0.0462	0.0165	0.9585
9.7657	34.8081	747.216	57.3467	-261.0387	-34.4773	708.8699	-0.76943	21.5764	-1.5149	7.2415	2.0379	23.6598	-0.0592	0.0182	-0.0073	-0.0462	0.0165	0.9585
9.7875	35.6494	730.1722	56.9785	-255.1024	-33.8794	691.054	-2.3213	46.8375	-3.6496	15.791	5.0351	51.274	-0.0592	0.0182	-0.0073	-0.0462	0.0165	0.9585
9.8093	35.743	703.7338	56.2854	-245.8003	-33.3549	664.7009	-4.6019	82.2944	-6.6894	27.8208	9.3183	90.0364	-0.0592	0.0182	-0.0073	-0.0462	0.0165	0.9585
9.8311	34.9321	667.0197	55.0301	-232.8219	-32.7435	629.0632	-7.9504	127.8432	-10.6895	43.301	15.0476	139.8242	-0.0592	0.0182	-0.0073	-0.0462	0.0165	0.9585
9.8529	33.1348	620.1997	52.9813	-216.2449	-31.8619	584.3539	-12.6647	181.5704	-15.7431	61.5617	22.3918	198.5525	-0.0592	0.0182	-0.0073	-0.0462	0.0165	0.9585
9.8746	30.4104	564.9332	50.0044	-196.6844	-30.5606	532.1354	-18.4385	240.1696	-21.6979	81.4522	31.0407	262.5709	-0.0592	0.0182	-0.0073	-0.0462	0.0165	0.9585
9.8964	26.9902	504.4236	46.1173	-175.3071	-28.7618	475.36	-24.5634	300.215	-28.0747	101.8033	40.2065	328.0204	-0.0592	0.0182	-0.0073	-0.0462	0.0165	0.9585
9.9182	23.2323	442.7576	41.4527	-153.5894	-26.4389	417.7561	-30.2355	358.8721	-34.2109	121.6762	48.8924	391.6552	-0.0592	0.0182	-0.0073	-0.0462	0.0165	0.9585
9.94	19.5283	383.8935	36.2395	-132.9454	-23.632	362.9014	-34.7861	413.8421	-39.5045	140.3211	56.2248	450.8508	-0.0592	0.0182	-0.0073	-0.0462	0.0165	0.9585
9.9618	16.1992	330.8949	30.812	-114.4493	-20.4942	313.5497	-37.8038	463.2234	-43.5641	157.109	61.6535	503.4911	-0.0592	0.0182	-0.0073	-0.0462	0.0165	0.9585
9.9836	13.4377	285.611	25.5628	-98.7255	-17.2806	271.3644	-39.1808	505.5339	-46.241	171.5328	64.9955	548.0047	-0.0592	0.0182	-0.0073	-0.0462	0.0165	0.9585
10.0054	11.3259	248.7207	20.866	-85.9769	-14.2798	236.9544	-39.0698	539.894	-47.586	183.2745	66.3714	583.5355	-0.0592	0.0182	-0.0073	-0.0462	0.0165	0.9585
10.0271	9.8807	219.9512	17.0053	-76.0755	-11.7343	210.0585	-37.7603	566.2906	-47.7905	192.3065	66.0989	610.1873	-0.0592	0.0182	-0.0073	-0.0462	0.0165	0.9585
10.0489	9.0697	198.3666	14.112	-68.6699	-9.7767	189.8071	-35.5899	585.5525	-47.1223	198.8919	64.5966	628.9699	-0.0592	0.0182	-0.0073	-0.0462	0.0165	0.9585
10.0707	8.814	182.6966	12.1599	-63.3022	-8.419	175.03	-32.9043	598.9806	-45.8676	203.4617	62.3061	641.3958	-0.0592	0.0182	-0.0073	-0.0462	0.0165	0.9585
10.0925	8.9854	171.6653	11.0173	-59.5214	-7.5949	164.554	-30.0237	607.943	-44.2799	206.4761	59.6248	649.0484	-0.0592	0.0182	-0.0073	-0.0462	0.0165	0.9585
10.1143	9.4132	164.2259	10.5144	-56.9633	-7.2162	157.4177	-27.2112	613.5931	-42.5508	208.3293	56.8619	653.2686	-0.0592	0.0182	-0.0073	-0.0462	0.0165	0.9585
10.1361	9.9196	159.6321	10.497	-55.3712	-7.2095	152.9394	-24.6408	616.7325	-40.8179	209.3	54.2321	654.9919	-0.0592	0.0182	-0.0073	-0.0462	0.0165	0.9585
10.1579	10.3696	157.344	10.8514	-54.5607	-7.5215	150.6334	-22.4019	617.823	-39.1779	209.5512	51.8668	654.7505	-0.0592	0.0182	-0.0073	-0.0462	0.0165	0.9585
10.1796	10.6972	156.8331	11.4915	-54.3465	-8.1009	150.0187	-20.5064	617.1519	-37.6952	209.1849	49.8243	652.8404	-0.0592	0.0182	-0.0073	-0.0462	0.0165	0.9585
10.2014	10.8965	157.357	12.3436	-54.4667	-8.8864	150.4043	-18.9007	615.0866	-36.4223	208.328	48.1177	649.5833	-0.0592	0.0182	-0.0073	-0.0462	0.0165	0.9585
10.2232	10.9845	157.862	13.3272	-54.5532	-9.7992	150.7937	-17.4951	612.3171	-35.4391	207.2177	46.7715	645.5958	-0.0592	0.0182	-0.0073	-0.0462	0.0165	0.9585
10.245	10.9557	157.1423	14.3385	-54.1897	-10.7438	150.0405	-16.1956	609.9747	-34.8493	206.2464	45.8315	641.9242	-0.0592	0.0182	-0.0073	-0.0462	0.0165	0.9585
10.2668	10.7668	154.1507	15.2583	-53.0189	-11.6259	147.1476	-14.92	609.5323	-34.7425	205.93	45.3365	639.9566	-0.0592	0.0182	-0.0073	-0.0462	0.0165	0.9585
10.2886	10.3379	148.3133	15.9744	-50.849	-12.3745	141.5656	-13.5995	612.5406	-35.1482	206.8207	45.2796	641.1713	-0.0592	0.0182	-0.0073	-0.0462	0.0165	0.9585
